<?xml version="1.0" standalone="no"?>
<!DOCTYPE svg PUBLIC "-//W3C//DTD SVG 20010904//EN"
 "http://www.w3.org/TR/2001/REC-SVG-20010904/DTD/svg10.dtd">
<svg version="1.0" xmlns="http://www.w3.org/2000/svg"
 width="597.000000pt" height="576.000000pt" viewBox="0 0 597.000000 576.000000"
 preserveAspectRatio="xMidYMid meet">

<g transform="translate(0.000000,576.000000) scale(0.100000,-0.100000)"
fill="#000000" stroke="none">
<path d="M3780 5754 c1 -11 21 -34 483 -552 196 -220 357 -406 357 -414 0 -7
-31 -85 -69 -173 l-69 -160 -591 -3 c-424 -1 -591 -5 -591 -13 0 -6 10 -29 22
-50 l22 -39 1253 0 c787 0 1253 -4 1253 -10 0 -5 -4 -19 -9 -32 -6 -13 -44
-129 -86 -259 -73 -227 -77 -237 -120 -279 -25 -24 -45 -49 -45 -54 0 -6 21
-31 46 -57 l46 -46 53 -219 c29 -121 52 -220 51 -222 -2 -1 -543 -2 -1204 -2
-1134 0 -1202 -1 -1210 -18 -5 -9 -12 -34 -16 -54 l-7 -38 175 0 174 0 4 -77
c3 -73 0 -87 -50 -221 -139 -376 -275 -918 -373 -1477 -22 -126 -42 -240 -44
-252 -3 -13 -1 -23 4 -23 4 0 23 53 40 118 258 949 579 1627 887 1872 l75 60
180 0 c99 0 178 -3 176 -7 -3 -5 -46 -78 -97 -163 -425 -711 -845 -1540 -1166
-2304 -30 -71 -53 -137 -51 -145 2 -9 31 38 64 104 385 760 1025 1654 1738
2428 l80 87 369 0 369 0 -6 28 c-6 28 -29 125 -93 397 -32 136 -42 165 -68
192 l-30 33 27 28 c18 19 41 69 66 148 111 335 172 538 167 550 -4 11 -40 14
-178 14 l-173 0 -390 260 c-247 165 -497 341 -681 482 -734 560 -764 583 -764
562z"/>
<path d="M1940 5578 c-124 -95 -333 -254 -465 -355 -139 -107 -426 -307 -682
-478 l-442 -295 -171 0 c-159 0 -170 -1 -170 -19 0 -10 23 -90 51 -177 144
-452 154 -479 183 -512 l29 -33 -30 -32 c-27 -29 -37 -61 -97 -312 -36 -154
-66 -286 -66 -292 0 -10 80 -13 368 -13 l367 0 147 -163 c126 -140 322 -367
447 -517 87 -105 327 -417 438 -570 306 -421 605 -905 803 -1300 28 -56 54
-100 57 -96 7 6 2 17 -88 231 -310 735 -748 1595 -1173 2300 l-66 110 177 3
176 2 40 -27 c194 -134 431 -496 623 -950 113 -268 276 -739 340 -985 10 -38
22 -68 26 -68 13 0 10 20 -38 258 -114 566 -265 1126 -396 1465 -28 73 -51
141 -51 152 -1 11 0 50 1 88 l2 67 159 0 160 0 -6 38 c-3 20 -10 45 -15 55 -8
16 -75 17 -1198 17 -655 0 -1190 1 -1190 3 1 1 25 100 54 219 l53 218 46 49
c26 28 47 53 47 56 0 3 -20 27 -44 53 -25 27 -50 61 -56 77 -18 46 -160 488
-160 497 0 4 557 8 1238 8 l1237 0 23 40 c12 21 22 44 22 49 0 7 -184 12 -576
13 l-577 3 -73 169 -73 169 227 255 c125 141 314 352 420 470 266 298 261 303
-58 60z"/>
<path d="M2956 5138 c-30 -314 -102 -571 -218 -783 -53 -96 -223 -327 -281
-383 l-35 -34 38 -67 c209 -369 356 -1183 450 -2491 18 -257 30 -525 47 -1135
9 -315 16 -245 33 305 14 480 41 927 85 1385 93 971 232 1641 399 1926 l44 74
-51 55 c-72 79 -192 240 -244 328 -125 209 -191 425 -230 750 -9 78 -20 142
-24 142 -3 0 -10 -33 -13 -72z m39 -785 c41 -170 99 -304 160 -372 19 -21 35
-42 35 -46 0 -4 -17 -38 -38 -74 -60 -105 -120 -253 -148 -369 -36 -146 -35
-145 -49 -71 -22 110 -72 248 -141 386 l-67 132 37 43 c65 75 144 269 168 410
7 37 13 66 15 64 2 -2 14 -48 28 -103z"/>
<path d="M2450 5101 c-71 -23 -131 -74 -166 -141 -29 -53 -26 -191 4 -247 101
-191 372 -190 475 2 29 53 31 192 3 245 -26 49 -74 98 -121 122 -43 23 -152
33 -195 19z m171 -139 c52 -59 60 -152 19 -220 -27 -44 -64 -65 -116 -65 -82
0 -139 67 -138 163 0 106 57 164 153 157 46 -3 59 -9 82 -35z"/>
<path d="M1795 5093 c-6 -5 -10 -104 -10 -261 l0 -252 65 0 65 0 -3 95 -4 95
26 0 c22 0 35 -13 76 -77 28 -43 50 -86 50 -95 0 -16 10 -18 75 -18 41 0 75 2
75 5 0 3 -27 48 -60 100 -64 100 -67 109 -47 122 21 13 47 55 58 96 18 67 -18
138 -86 175 -33 17 -262 30 -280 15z m229 -119 c9 -8 16 -25 16 -38 0 -40 -23
-58 -78 -64 l-52 -5 0 62 0 61 49 0 c32 0 55 -6 65 -16z"/>
<path d="M3330 5082 c0 -19 -30 -109 -114 -341 -31 -84 -56 -155 -56 -157 0
-2 28 -4 63 -4 l62 0 19 65 19 66 80 -3 80 -3 13 -45 c8 -25 11 -53 8 -62 -5
-16 3 -18 65 -18 58 0 71 3 71 16 0 8 -21 79 -46 157 -25 78 -59 182 -75 230
-15 48 -26 94 -22 102 4 13 -9 15 -81 15 -75 0 -86 -2 -86 -18z m99 -201 c7
-23 15 -49 18 -57 4 -11 -6 -14 -42 -14 -34 0 -46 4 -42 13 2 6 13 36 23 64
21 58 25 58 43 -6z"/>
<path d="M3734 5085 c3 -9 6 -127 6 -262 l0 -245 138 4 c131 3 139 5 192 34
77 43 113 103 118 195 5 91 -2 127 -39 182 -22 33 -46 54 -87 74 -53 26 -68
28 -196 31 -127 4 -138 3 -132 -13z m275 -111 c30 -21 61 -89 60 -134 -1 -98
-53 -150 -150 -150 l-59 0 0 150 0 150 63 0 c42 0 70 -5 86 -16z"/>
<path d="M4375 4718 c-28 -16 -35 -28 -35 -64 0 -37 32 -74 64 -74 39 0 76 37
76 76 0 60 -53 91 -105 62z m63 -59 c4 -34 -22 -57 -43 -39 -16 13 -20 51 -8
64 16 16 48 1 51 -25z"/>
<path d="M4220 4705 c0 -8 9 -15 19 -15 17 0 20 -8 23 -52 2 -39 7 -53 18 -53
11 0 16 14 18 53 3 44 6 52 23 52 10 0 19 7 19 15 0 12 -13 15 -60 15 -47 0
-60 -3 -60 -15z"/>
<path d="M550 4209 c0 -6 25 -39 55 -74 l55 -62 0 -387 0 -386 430 0 429 0 3
263 c2 144 2 272 0 285 l-3 22 -210 0 -209 0 0 -115 0 -115 70 0 70 0 0 -55 0
-56 -147 3 -148 3 -3 223 -2 222 290 0 290 0 1 95 c1 52 2 102 2 110 0 8 -1
20 -2 25 -2 15 -971 14 -971 -1z"/>
<path d="M1580 4204 c0 -5 23 -36 51 -67 l51 -57 1 -387 2 -388 429 -3 c405
-2 428 -1 424 15 -3 10 -18 62 -33 116 l-29 97 -253 0 -253 0 -2 340 -3 341
-193 2 c-129 1 -192 -1 -192 -9z"/>
<path d="M3550 4210 c0 -5 25 -37 55 -73 l55 -64 0 -387 0 -386 140 0 139 0 3
158 3 157 67 3 67 3 81 -161 80 -160 140 0 c85 0 140 4 140 10 0 5 -31 73 -70
151 -38 77 -70 145 -70 150 0 5 34 9 75 9 l75 0 -2 298 -3 297 -487 2 c-269 1
-488 -2 -488 -7z m688 -294 l3 -66 -151 0 -150 0 0 64 c0 77 -12 72 170 70
l125 -1 3 -67z"/>
<path d="M4580 4205 c0 -6 24 -38 54 -72 l55 -63 -4 -67 c-1 -38 2 -77 8 -88
5 -11 71 -85 146 -164 l136 -143 0 -152 0 -151 143 -3 142 -3 0 153 1 153 144
155 145 155 -2 150 -3 150 -137 3 c-106 2 -138 0 -139 -10 -1 -7 -2 -48 -3
-90 l-1 -77 -70 -80 c-38 -45 -72 -81 -75 -81 -3 0 -37 35 -75 77 l-70 77 -5
90 -5 91 -192 0 c-126 0 -193 -3 -193 -10z"/>
</g>
</svg>
